<?xml version="1.0" encoding="UTF-8"?>
<svg xmlns="http://www.w3.org/2000/svg" xmlns:xlink="http://www.w3.org/1999/xlink" version="1.1" id="Ebene_1" x="0px" y="0px" viewBox="0 0 994 250" style="enable-background:new 0 0 994 250;" xml:space="preserve">
<style type="text/css">
	.st0{fill:#FFFFFF;}
</style>
<path class="st0" d="M107,129.5c0,11.1-9.6,16.2-21.3,16.2c-11.4,0-21.7-6.8-21.7-19.3h12.1c0,7,4.4,9.5,10.3,9.5  c4.9,0,8.7-1.6,8.7-6.2c0-5-5.4-5.4-16.6-9.7c-7.4-2.9-12.7-5.6-12.7-14.9c0-10.1,9.2-15.5,20-15.5c11.3,0,20.4,7.7,20.4,18.1H94.1  c0-5-2.5-8.2-8.6-8.2c-4.2,0-7.7,2.1-7.7,5.8c0,4.6,4.9,5.1,14.6,8.9C99.9,117.1,107,119.8,107,129.5"></path>
<polygon class="st0" points="155,104.5 140.9,144.4 132.6,144.4 111.9,91 125.2,91 136.8,124.8 148.8,91 161.1,91 173.1,124.8   184.6,91 198,91 177.3,144.4 169,144.4 "></polygon>
<path class="st0" d="M208.9,91h12.5v53.3h-12.5V91z M215.1,155.2c5.1,0,9.3,4.1,9.3,9.3c0,5-4.1,9.2-9.3,9.2c-5,0-9.1-4.1-9.1-9.2  C206,159.3,210.1,155.2,215.1,155.2"></path>
<path class="st0" d="M278.1,129.5c0,11.1-9.6,16.2-21.3,16.2c-11.4,0-21.7-6.8-21.7-19.3h12.1c0,7,4.3,9.5,10.3,9.5  c4.9,0,8.7-1.6,8.7-6.2c0-5-5.4-5.4-16.6-9.7c-7.4-2.9-12.7-5.6-12.7-14.9c0-10.1,9.2-15.5,20-15.5c11.3,0,20.4,7.7,20.4,18.1h-12.1  c0-5-2.5-8.2-8.6-8.2c-4.2,0-7.7,2.1-7.7,5.8c0,4.6,4.9,5.1,14.6,8.9C271,117.1,278.1,119.8,278.1,129.5"></path>
<path class="st0" d="M330.4,129.5c0,11.1-9.6,16.2-21.3,16.2c-11.4,0-21.7-6.8-21.7-19.3h12.1c0,7,4.4,9.5,10.3,9.5  c4.9,0,8.7-1.6,8.7-6.2c0-5-5.4-5.4-16.6-9.7c-7.4-2.9-12.7-5.6-12.7-14.9c0-10.1,9.2-15.5,20-15.5c11.3,0,20.4,7.7,20.4,18.1h-12.1  c0-5-2.5-8.2-8.6-8.2c-4.2,0-7.7,2.1-7.7,5.8c0,4.6,4.9,5.1,14.6,8.9C323.3,117.1,330.4,119.8,330.4,129.5"></path>
<path class="st0" d="M392,91v53.3h-12.5v-7.4c-3.3,5.7-9.5,8.8-17.4,8.8c-7.7,0-13-2.8-16-7.2c-2.6-4-3.4-8.5-3.4-15.8V91h12.5v27.6  c0,9.2,2.6,16.1,11.6,16.1c8.7,0,12.8-7,12.8-16.1V91H392z"></path>
<path class="st0" d="M408.8,91h12.5v7.4c3.3-5.7,9.5-8.8,17.4-8.8c7.7,0,13,2.7,16,7.2c2.6,4,3.4,8.5,3.4,15.8v31.7h-12.5v-27.6  c0-9.2-2.6-16.1-11.6-16.1c-8.7,0-12.8,7-12.8,16.1v27.6h-12.5V91z"></path>
<path class="st0" d="M473.4,91h12.5v53.3h-12.5V91z M479.6,155.2c5.2,0,9.3,4.1,9.3,9.3c0,5-4.1,9.2-9.3,9.2c-5,0-9.1-4.1-9.1-9.2  C470.5,159.3,474.6,155.2,479.6,155.2"></path>
<polygon class="st0" points="509.3,91 523.9,126.5 538.8,91 552.2,91 528.1,144.4 519.7,144.4 495.9,91 "></polygon>
<path class="st0" d="M566.9,112.2H593c0-7.4-5.4-12.1-12.9-12.1C572.7,100.1,566.9,104.3,566.9,112.2 M566.8,121.5  c0.1,7.7,3.9,13.9,14,13.9c7.1,0,9.7-3.2,11.3-7h12.6c-1.7,9.2-10.3,17.4-23.9,17.4c-18,0-26.7-13.5-26.7-28c0-16,9.5-28,26.3-28  c13.8,0,24.7,10.4,24.7,24c0,1.8,0,4.4-0.6,7.8H566.8z"></path>
<path class="st0" d="M652.5,102.6c-1.9-0.5-3-0.6-4.9-0.6c-10.6,0-16.5,6.1-16.5,19.3v23h-12.5V91h12.5v8.6  c2.4-4.9,9.4-9.3,16.5-9.3c1.9,0,3.6,0.2,4.9,0.8V102.6z"></path>
<path class="st0" d="M700.6,129.5c0,11.1-9.6,16.2-21.3,16.2c-11.4,0-21.7-6.8-21.7-19.3h12.1c0,7,4.4,9.5,10.3,9.5  c4.9,0,8.7-1.6,8.7-6.2c0-5-5.4-5.4-16.6-9.7c-7.4-2.9-12.7-5.6-12.7-14.9c0-10.1,9.2-15.5,20-15.5c11.3,0,20.4,7.7,20.4,18.1h-12.1  c0-5-2.5-8.2-8.6-8.2c-4.2,0-7.7,2.1-7.7,5.8c0,4.6,4.9,5.1,14.6,8.9C693.5,117.1,700.6,119.8,700.6,129.5"></path>
<path class="st0" d="M713.6,91h12.5v53.3h-12.5V91z M719.8,155.2c5.1,0,9.3,4.1,9.3,9.3c0,5-4.1,9.2-9.3,9.2c-5,0-9.2-4.1-9.2-9.2  C710.6,159.3,714.7,155.2,719.8,155.2"></path>
<path class="st0" d="M773.2,144.4c-1.9,0.3-5.6,0.7-9.3,0.7c-6.1,0-17.3-0.8-17.3-18.8v-24.8h-9V91h9V74.9h12.5V91h12.2v10.4h-12.2  v22c0,9.3,2.9,10.4,7.8,10.4c1.9,0,5-0.2,6.3-0.5V144.4z"></path>
<path class="st0" d="M786.7,91h12.5v53.3h-12.5V91z M792.9,155.2c5.2,0,9.3,4.1,9.3,9.3c0,5-4.1,9.2-9.3,9.2c-5,0-9.1-4.1-9.1-9.2  C783.7,159.3,787.8,155.2,792.9,155.2"></path>
<path class="st0" d="M825.5,112.2h26.1c0-7.4-5.4-12.1-12.9-12.1C831.3,100.1,825.5,104.3,825.5,112.2 M825.3,121.5  c0.1,7.7,3.9,13.9,14,13.9c7.1,0,9.7-3.2,11.3-7h12.6c-1.7,9.2-10.3,17.4-23.9,17.4c-18,0-26.7-13.5-26.7-28c0-16,9.5-28,26.3-28  c13.8,0,24.7,10.4,24.7,24c0,1.8,0,4.4-0.6,7.8H825.3z"></path>
<path class="st0" d="M916,129.5c0,11.1-9.6,16.2-21.3,16.2c-11.4,0-21.7-6.8-21.7-19.3h12.1c0,7,4.3,9.5,10.3,9.5  c4.9,0,8.7-1.6,8.7-6.2c0-5-5.4-5.4-16.6-9.7c-7.4-2.9-12.7-5.6-12.7-14.9c0-10.1,9.1-15.5,20-15.5c11.3,0,20.4,7.7,20.4,18.1h-12.1  c0-5-2.5-8.2-8.6-8.2c-4.2,0-7.7,2.1-7.7,5.8c0,4.6,4.9,5.1,14.6,8.9C908.9,117.1,916,119.8,916,129.5"></path>
</svg>
